<?xml version="1.0" standalone="no"?>
<!DOCTYPE svg PUBLIC "-//W3C//DTD SVG 20010904//EN"
 "http://www.w3.org/TR/2001/REC-SVG-20010904/DTD/svg10.dtd">
<svg version="1.0" xmlns="http://www.w3.org/2000/svg"
 width="225.000000pt" height="225.000000pt" viewBox="0 0 225.000000 225.000000"
 preserveAspectRatio="xMidYMid meet">

<g transform="translate(0.000000,225.000000) scale(0.100000,-0.100000)"
fill="#000000" stroke="none">
<path d="M12 1958 c-16 -16 -16 -170 0 -186 8 -8 62 -12 175 -12 l163 0 0 -69
0 -68 -48 -7 c-62 -8 -115 -45 -141 -99 -21 -42 -21 -55 -21 -568 0 -487 2
-527 19 -564 22 -48 44 -69 94 -90 32 -13 143 -15 874 -15 792 0 840 1 878 19
48 22 69 44 90 94 13 31 15 111 15 559 0 510 0 523 -21 565 -26 54 -79 91
-141 99 l-48 7 0 68 0 69 163 0 c113 0 167 4 175 12 7 7 12 43 12 93 0 50 -5
86 -12 93 -17 17 -2209 17 -2226 0z m2168 -98 l0 -30 -1020 0 -1020 0 0 30 0
30 1020 0 1020 0 0 -30z m-490 -170 l0 -69 -96 -3 c-101 -3 -125 -14 -111 -52
6 -14 32 -16 232 -16 251 0 282 -6 309 -59 24 -45 24 -1037 1 -1081 -32 -63 7
-60 -900 -60 -907 0 -868 -3 -900 60 -23 44 -23 1036 1 1081 30 59 31 59 622
59 532 0 562 2 562 31 0 4 -7 15 -16 23 -13 14 -66 16 -425 16 l-409 0 0 70 0
70 565 0 565 0 0 -70z m-1200 -20 c0 -49 -1 -50 -30 -50 -29 0 -30 1 -30 50 0
49 1 50 30 50 29 0 30 -1 30 -50z m1330 0 c0 -49 -1 -50 -30 -50 -29 0 -30 1
-30 50 0 49 1 50 30 50 29 0 30 -1 30 -50z"/>
<path d="M653 1470 c-12 -5 -29 -20 -39 -34 -9 -15 -23 -26 -31 -26 -48 0 -93
-52 -93 -109 0 -25 -4 -29 -41 -35 -129 -21 -129 -191 0 -212 37 -6 41 -9 41
-36 0 -55 45 -108 92 -108 6 0 24 -14 38 -32 34 -41 86 -44 125 -8 23 21 25
31 25 102 l0 78 355 0 355 0 0 -78 c0 -71 2 -81 25 -102 39 -36 91 -33 125 8
14 18 32 32 38 32 47 0 92 53 92 108 0 27 4 30 41 36 129 21 129 191 0 212
-37 6 -41 9 -41 36 0 55 -45 108 -92 108 -6 0 -24 14 -38 32 -34 41 -86 44
-125 8 -23 -21 -25 -31 -25 -102 l0 -78 -355 0 -355 0 0 78 c0 69 -3 81 -22
100 -28 25 -66 34 -95 22z m45 -316 c-2 -153 -7 -238 -13 -237 -11 3 -20 456
-10 482 4 9 9 11 16 4 6 -6 8 -101 7 -249z m880 0 c-2 -153 -7 -238 -13 -237
-11 3 -20 456 -10 482 4 9 9 11 16 4 6 -6 8 -101 7 -249z m-978 6 c0 -163 -1
-170 -20 -170 -19 0 -20 7 -20 170 0 163 1 170 20 170 19 0 20 -7 20 -170z
m1090 0 c0 -163 -1 -170 -20 -170 -19 0 -20 7 -20 170 0 163 1 170 20 170 19
0 20 -7 20 -170z m-1200 0 c0 -25 -4 -30 -25 -30 -14 0 -28 7 -31 15 -10 25 4
45 31 45 21 0 25 -5 25 -30z m980 0 l0 -30 -345 0 -345 0 0 30 0 30 345 0 345
0 0 -30z m345 0 c0 -20 -6 -26 -27 -28 -25 -3 -28 0 -28 28 0 28 3 31 28 28
21 -2 27 -8 27 -28z"/>
<path d="M668 741 c-33 -29 -33 -31 -36 -129 -6 -159 23 -192 170 -192 46 0
89 4 96 8 9 6 12 34 10 103 l-3 94 -56 3 c-40 2 -59 -1 -68 -12 -18 -22 3 -56
34 -56 22 0 25 -4 25 -35 l0 -35 -54 0 c-76 0 -86 13 -86 109 0 46 5 82 12 89
7 7 43 12 92 12 92 0 109 7 104 41 -3 23 -6 24 -105 27 -100 3 -102 2 -135
-27z"/>
<path d="M992 758 c-17 -17 -15 -91 3 -134 11 -26 25 -40 54 -51 40 -16 40
-16 43 -76 2 -43 8 -63 20 -70 30 -19 48 8 48 73 l0 57 40 16 c47 18 70 61 70
130 0 48 -17 71 -47 65 -14 -2 -19 -16 -24 -62 -7 -66 -17 -76 -74 -76 -57 0
-67 10 -74 76 -5 49 -9 59 -26 62 -11 1 -26 -3 -33 -10z"/>
<path d="M1347 763 c-4 -3 -7 -80 -7 -169 0 -158 1 -163 22 -170 35 -11 48 19
48 115 l0 86 26 -32 c14 -18 32 -33 39 -33 7 0 27 17 44 37 l31 38 0 -102 c0
-94 2 -102 20 -108 44 -14 50 7 50 165 0 82 -3 155 -6 164 -13 34 -50 18 -94
-40 -23 -31 -45 -52 -49 -47 -4 4 -24 29 -45 56 -34 43 -62 57 -79 40z"/>
</g>
</svg>
